/* XPM */
static char * Logo_xpm[] = {
"64 64 289 2",
"  	c None",
". 	c #777F81",
"+ 	c #767E7F",
"@ 	c #2C4044",
"# 	c #0098B3",
"$ 	c #00A1BB",
"% 	c #00A2BB",
"& 	c #00A4BB",
"* 	c #00A5BB",
"= 	c #00A1B4",
"- 	c #15363A",
"; 	c #F0F0F0",
"> 	c #35494E",
", 	c #00C2EB",
"' 	c #00D4FF",
") 	c #00D6FF",
"! 	c #00D8FF",
"~ 	c #00DAFF",
"{ 	c #00DDFF",
"] 	c #00D0EE",
"^ 	c #143E44",
"/ 	c #9CA1A2",
"( 	c #B0B0B0",
"_ 	c #A6A6A6",
": 	c #A0A0A0",
"< 	c #293538",
"[ 	c #00B3E1",
"} 	c #00CDFF",
"| 	c #00CFFF",
"1 	c #00D1FF",
"2 	c #00D3FF",
"3 	c #00D2F4",
"4 	c #13454D",
"5 	c #858D8E",
"6 	c #46575B",
"7 	c #086179",
"8 	c #096D87",
"9 	c #096C87",
"0 	c #096B87",
"a 	c #096A87",
"b 	c #096987",
"c 	c #096787",
"d 	c #096F91",
"e 	c #0A7498",
"f 	c #0A7598",
"g 	c #0A7698",
"h 	c #07799C",
"i 	c #00BBF3",
"j 	c #00C6FF",
"k 	c #00C8FF",
"l 	c #00CAFF",
"m 	c #00CCFF",
"n 	c #00D4FB",
"o 	c #116472",
"p 	c #4A5759",
"q 	c #13424E",
"r 	c #00C7FF",
"s 	c #00C5FF",
"t 	c #00C3FF",
"u 	c #00C1FF",
"v 	c #00BFFF",
"w 	c #00BDFF",
"x 	c #00BCFF",
"y 	c #00BAFF",
"z 	c #00B9FF",
"A 	c #00BBFF",
"B 	c #00D0FF",
"C 	c #088EA7",
"D 	c #27383B",
"E 	c #4A5A5E",
"F 	c #00A2CA",
"G 	c #00C9FF",
"H 	c #00C4FF",
"I 	c #00B8FF",
"J 	c #00B7FF",
"K 	c #00B5FF",
"L 	c #00B4FF",
"M 	c #00B3FF",
"N 	c #00B6FF",
"O 	c #00BEFF",
"P 	c #01ADD2",
"Q 	c #183135",
"R 	c #AEB0B0",
"S 	c #17363E",
"T 	c #00C0FF",
"U 	c #00B2FF",
"V 	c #00B0FF",
"W 	c #00AFFF",
"X 	c #00AEFF",
"Y 	c #00B1FF",
"Z 	c #00C2FF",
"` 	c #00CBFF",
" .	c #00C1EE",
"..	c #154954",
"+.	c #667173",
"@.	c #919696",
"#.	c #077A92",
"$.	c #00CEFF",
"%.	c #00ADFF",
"&.	c #00ACFF",
"*.	c #00AAFF",
"=.	c #00A9FF",
"-.	c #00A8FF",
";.	c #00ABFF",
">.	c #0A809B",
",.	c #293B3E",
"'.	c #3B4F53",
").	c #00BAE1",
"!.	c #00A7FF",
"~.	c #00A5FF",
"{.	c #00A4FF",
"].	c #00A3FF",
"^.	c #00B4E1",
"/.	c #163D46",
"(.	c #1B3438",
"_.	c #00D2FF",
":.	c #00A1FF",
"<.	c #009FFF",
"[.	c #009EFF",
"}.	c #009DFF",
"|.	c #00A0FF",
"1.	c #00A2FF",
"2.	c #00C6FA",
"3.	c #10657A",
"4.	c #3E4D50",
"5.	c #163E45",
"6.	c #00D9FF",
"7.	c #00D5FF",
"8.	c #009CFF",
"9.	c #009AFF",
"0.	c #0099FF",
"a.	c #0098FF",
"b.	c #009BFF",
"c.	c #049BC2",
"d.	c #1C353A",
"e.	c #919697",
"f.	c #15555E",
"g.	c #00DCFF",
"h.	c #0096FF",
"i.	c #0094FF",
"j.	c #0093FF",
"k.	c #0097FF",
"l.	c #00C4F7",
"m.	c #0D697F",
"n.	c #24373C",
"o.	c #A1A4A5",
"p.	c #175158",
"q.	c #00E0FF",
"r.	c #00A6FF",
"s.	c #0090FF",
"t.	c #008DFF",
"u.	c #00BDEC",
"v.	c #0E6A7E",
"w.	c #1D373C",
"x.	c #5D6D70",
"y.	c #173A3E",
"z.	c #00E4FF",
"A.	c #00E1FF",
"B.	c #0092FF",
"C.	c #008FFF",
"D.	c #008BFF",
"E.	c #0089FF",
"F.	c #0091FF",
"G.	c #0095FF",
"H.	c #00CEFD",
"I.	c #00A0C1",
"J.	c #105865",
"K.	c #1A3235",
"L.	c #3D5356",
"M.	c #7B8384",
"N.	c #B2B2B2",
"O.	c #263D3F",
"P.	c #00DCF1",
"Q.	c #00E5FF",
"R.	c #008EFF",
"S.	c #00D7FF",
"T.	c #00C1E1",
"U.	c #019AB0",
"V.	c #12727E",
"W.	c #1A5157",
"X.	c #1B3C3F",
"Y.	c #233D3F",
"Z.	c #304546",
"`.	c #506263",
" +	c #778080",
".+	c #ACACAC",
"++	c #949A9A",
"@+	c #0E777F",
"#+	c #00EAFF",
"$+	c #00E6FF",
"%+	c #00E2FF",
"&+	c #00DEFF",
"*+	c #00DBFF",
"=+	c #00DFFF",
"-+	c #00E3FF",
";+	c #00E7FF",
">+	c #00EBFF",
",+	c #00D9E8",
"'+	c #00C7D2",
")+	c #00AFB5",
"!+	c #117F81",
"~+	c #184546",
"{+	c #3A4F4F",
"]+	c #374A4B",
"^+	c #05A1AC",
"/+	c #00E8FF",
"(+	c #00EFFF",
"_+	c #00F2FF",
":+	c #00F6FF",
"<+	c #00FAFF",
"[+	c #01C9CB",
"}+	c #405152",
"|+	c #105F64",
"1+	c #00C7D6",
"2+	c #00E9FF",
"3+	c #00F3FF",
"4+	c #00F7FF",
"5+	c #00FBFF",
"6+	c #173737",
"7+	c #B2B3B3",
"8+	c #45585A",
"9+	c #1F383A",
"0+	c #164246",
"a+	c #154E54",
"b+	c #154D54",
"c+	c #154C54",
"d+	c #174047",
"e+	c #16353B",
"f+	c #1B383D",
"g+	c #20393F",
"h+	c #253B41",
"i+	c #283B41",
"j+	c #2B3C41",
"k+	c #283A40",
"l+	c #20373F",
"m+	c #1A3742",
"n+	c #1A495D",
"o+	c #145C7D",
"p+	c #076C9B",
"q+	c #0083C4",
"r+	c #009DEE",
"s+	c #00ECFF",
"t+	c #00F0FF",
"u+	c #00F4FF",
"v+	c #01B9BF",
"w+	c #B8B8B8",
"x+	c #989898",
"y+	c #616B70",
"z+	c #2E3E44",
"A+	c #192931",
"B+	c #153443",
"C+	c #104E6D",
"D+	c #02679A",
"E+	c #0083C6",
"F+	c #009FF0",
"G+	c #00E0F4",
"H+	c #00B0BD",
"I+	c #125A5E",
"J+	c #344B4C",
"K+	c #B4B4B4",
"L+	c #8C8F90",
"M+	c #57666D",
"N+	c #2C3E46",
"O+	c #1E343E",
"P+	c #162E39",
"Q+	c #153949",
"R+	c #154357",
"S+	c #134C65",
"T+	c #0F5775",
"U+	c #0F5976",
"V+	c #096485",
"W+	c #096687",
"X+	c #096887",
"Y+	c #097495",
"Z+	c #0A7998",
"`+	c #0A7A98",
" @	c #0A7C98",
".@	c #0A7D98",
"+@	c #09788F",
"@@	c #097387",
"#@	c #0E6979",
"$@	c #165862",
"%@	c #19464C",
"&@	c #1B393C",
"*@	c #2C4042",
"=@	c #697475",
"-@	c #C0C0C0",
";@	c #A3A3A3",
">@	c #ADADAD",
"                                                                                                                                ",
"                                                                                                                                ",
"                                                                                                                                ",
"                                                                                                                                ",
"                                                                                                                                ",
"                                                                                                                                ",
"                                                                                                                                ",
"                                                                                                                                ",
"                                                                                                                                ",
"                                                                                                                                ",
"                                                                                                                                ",
"                                                                                                                                ",
"                                                                                                                                ",
"                                                                                                                                ",
"                                                                                                                                ",
"                                                                                                                                ",
"                                                                                                                                ",
"                                                                                                                                ",
"                                                                                                                                ",
"                                                                                                                                ",
"                                            . . . . . +                                                                         ",
"                                          @ # $ % & * = -                                                                       ",
"                                        ; > , ' ) ! ~ { ] ^ /                                                                   ",
"            ( ( ( ( ( ( ( _ : : : : : : : < [ } | 1 2 ) ! 3 4 5                                                                 ",
"        6 7 8 9 0 a b b c d e e e e e f g h i j k l m | 1 ' n o p                                                               ",
"        q l r s t u v w x y z z z z z y A x w v u t s k l } B 2 C D                                                             ",
"      E F G j H u v x y I J K L L M M M L K N I y x O u t j G m | P Q R                                                         ",
"      S } G j t T w A I N L U V W X X X X W V Y M K J y x v Z s k `  ...+.                                                      ",
"    @.#.$.l r H T w y J L U W %.&.*.=.-.-.=.=.;.&.X V M K I A O u s k ` >.,.                                                    ",
"    '.).| m k s u O A J L Y X &.=.!.~.{.].].].{.~.!.=.&.X Y L J A O Z s G ^./..                                                 ",
"    (.) _.$.l r t v x I K U X ;.-.~.].:.<.[.}.[.<.|.1.~.!.*.%.Y L I A v Z j 2.3.4.                                              ",
"    5.6.7.1 } G j Z O y J M W &.-.~.1.<.8.9.0.a.a.0.b.[.|.{.!.*.X Y K z x T H k c.d.e.                                          ",
"    f.g.! ' 1 } G s u w y N U X *.!.].|.8.0.h.i.j.j.i.k.9.}.|.{.-.;.W M J y O Z j l.m.n.o.                                      ",
"    p.q.g.! ' 1 } G s u w z K Y X *.r.1.[.9.k.j.s.t.t.s.j.h.9.[.1.r.=.%.Y K z w u s G u.v.w.x.                                  ",
"    y.z.A.{ 6.7.1 } G s u w z N U X *.r.1.[.9.h.B.C.D.E.t.F.G.0.}.:.~.=.&.V L I x T H k m H.I.J.K.L.M.N.                        ",
"    O.P.Q.A.{ 6.) _.$.l j Z O y N M W ;.!.].<.8.a.i.F.C.R.C.B.h.0.}.:.~.=.&.V L I x T H k ` | 2 S.T.U.V.W.X.Y.Z.`. +.+          ",
"    ++@+#+$+%+&+*+S.2 | ` r t T x I L V %.=.~.1.[.b.a.h.i.j.i.h.a.b.<.1.r.=.%.Y K I x T H k m | 2 S.*+=+-+;+>+,+'+)+!+~+{+      ",
"      ]+^+>+/+z.q.g.! ' 1 } G s u O y N M W &.-.~.1.<.}.b.0.0.0.9.8.<.:.~.-.;.W U N z w u s k m B ' ! *+=+-+;+>+(+_+:+<+[+      ",
"        }+|+1+2+Q.%+&+~ ) 2 | ` r H T w z N U W &.=.r.{.:.|.<.[.[.<.:.].~.-.;.X Y L I A v Z j G } 1 7.! g.q.z.;+>+(+3+4+5+6+    ",
"          7+8+9+0+a+b+c+d+e+f+g+h+i+j+j+j+k+l+m+n+o+p+q+r+!.~.{.{.{.{.~.!.=.;.X Y L J y w u H r ` | _.) ~ { A.Q./+s+t+u+v+      ",
"                                                  w+x+y+z+A+B+C+D+E+F+*.*.&.%.W U L J y w T t j l } B ' S.*+=+%+$+G+H+I+J+      ",
"                                                              K+L+M+N+O+P+Q+R+S+T+U+U+V+W+X+Y+Z+`+ @.@+@@@#@$@%@&@*@=@          ",
"                                                                                    -@N.( ( ;@: : : : : : >@                    ",
"                                                                                                                                ",
"                                                                                                                                ",
"                                                                                                                                ",
"                                                                                                                                ",
"                                                                                                                                ",
"                                                                                                                                ",
"                                                                                                                                ",
"                                                                                                                                ",
"                                                                                                                                ",
"                                                                                                                                ",
"                                                                                                                                ",
"                                                                                                                                ",
"                                                                                                                                ",
"                                                                                                                                ",
"                                                                                                                                ",
"                                                                                                                                ",
"                                                                                                                                ",
"                                                                                                                                ",
"                                                                                                                                ",
"                                                                                                                                ",
"                                                                                                                                "};
